<?xml version="1.0"?>
<svg version="1.1" xmlns="http://www.w3.org/2000/svg" width="400px" height="150px" style="border: dashed 2px #aaa"><path fill="#ffffff" d="M124.6,96.6l0-2.4l3.4-0.8l0-21.6l-3.4-0.8l0-2.2l11.4-0.2l0,2.4l-3.8,0.8l0,8.8l13.4,0l0-8.8l-3.8-0.8l0-2.2l11.4-0.2l0,2.4l-3.4,0.8l0,21.6l3.4,0.8l0,2.4l-11.4,0l0-2.4l3.8-0.8l0-9.6l-13.4,0l0,9.6l3.8,0.8l0,2.4l-11.4,0z M161.024,93.44l9.12-24.64l4-0.2l8.88,24.84l3.32,0.76l0,2.4l-11.6,0l0-2.4l3.72-0.76l-1.52-4.44l-10.4,0l-1.56,4.44l3.76,0.76l0,2.4l-11,0l0-2.4z M175.864,85.8l-4.04-12.04l-4.2,12.04l8.24,0z M194.288,93.4l0-21.6l-3.4-0.8l0-2.2l7.4-0.2l4.6,0c5,0,8.6,2.2,8.6,7c0,3.6-1.84,5.64-5.2,6.48c4.2,0.96,6.2,3.32,6.2,6.52c0,5.6-3.6,8-10.2,8l-11.4,0l0-2.4z M198.288,80.6l3,0c3.6,0,6-1.4,6-4.6c0-2.8-2-4.2-4.6-4.2l-4.4,0l0,8.8z M198.288,93.4l4.2,0c3.8,0,5.8-1.6,5.8-4.6c0-4-2.6-5.2-7-5.2l-3,0l0,9.8z M223.232,88.4l0.8,4.2s1.8,1,4.4,1c2.92,0,6.12-1.44,6.12-4.28c0-6.16-14.44-3.6-14.44-13.16c0-5.6,4.48-7.96,9.48-7.96c3.8,0,8.44,1.6,8.44,1.6l-0.2,6.8l-2.6,0l-1.36-4.28s-2.04-0.72-4.24-0.72c-3.6,0-5.32,1.88-5.32,3.88c0,6.08,14.4,3.76,14.4,12.76c0,6-4.84,8.76-10.44,8.76c-4.2,0-8.24-1.6-8.24-1.6l0-7l3.2,0z M249.856,88.4l0.8,4.2s1.8,1,4.4,1c2.92,0,6.12-1.44,6.12-4.28c0-6.16-14.44-3.6-14.44-13.16c0-5.6,4.48-7.96,9.48-7.96c3.8,0,8.44,1.6,8.44,1.6l-0.2,6.8l-2.6,0l-1.36-4.28s-2.04-0.72-4.24-0.72c-3.6,0-5.32,1.88-5.32,3.88c0,6.08,14.4,3.76,14.4,12.76c0,6-4.84,8.76-10.44,8.76c-4.2,0-8.24-1.6-8.24-1.6l0-7l3.2,0z"/><path fill="#ffffff" d=""/></svg>
